# xmcd
#
# Track frame offsets: 
#        150
#        15650
#        30687
#        46820
#        66225
#        80477
#        94457
#        113712
#        129592
#        148000
#
# Disc length: 2188 seconds
#
# Revision: 2
# Processed by: cddbd v1.5.2PL0 Copyright (c) Steve Scherf et al.
# Submitted via: ExactAudioCopy v0.99pb5
#
DISCID=86088a0a
DTITLE=La Protesta with Tony Pabon - Free
DYEAR=1971
DGENRE=Salsa
TTITLE0=Compay pongase duro
TTITLE1=Alli yo voy
TTITLE2=Dale biberon
TTITLE3=Free
TTITLE4=Todo tiene su final
TTITLE5=Boga sin vela
TTITLE6=Cachombe
TTITLE7=Soy boricua
TTITLE8=Delia
TTITLE9=Independiente
EXTD=
EXTT0=
EXTT1=
EXTT2=
EXTT3=
EXTT4=
EXTT5=
EXTT6=
EXTT7=
EXTT8=
EXTT9=
PLAYORDER=
